# xmcd CD database file
#
# Track frame offsets:
#	150
#	15744
#	44576
#	58529
#	72184
#	84772
#	104708
#	117253
#	124504
#	139614
#
# Disc length: 2071 seconds
#
# Revision: 0
# Processed by: cddbd v1.4PL0 Copyright (c) Steve Scherf et al.
# Submitted via: CDex 1.50
#
DISCID=8308150a
DTITLE=Ambient Womb - Reza Manzoori
DYEAR=2003
DGENRE=New Age
TTITLE0=Union
TTITLE1=Arrival
TTITLE2=Origins
TTITLE3=Dolphins
TTITLE4=World outside
TTITLE5=Insignia
TTITLE6=Wave
TTITLE7=Valley
TTITLE8=Along the way
TTITLE9=Breath
EXTD=YEAR: 2003
EXTT0=
EXTT1=
EXTT2=
EXTT3=
EXTT4=
EXTT5=
EXTT6=
EXTT7=
EXTT8=
EXTT9=
PLAYORDER=
